<svg width="194" height="21" viewBox="0 0 194 21" fill="none" xmlns="http://www.w3.org/2000/svg">
<path d="M0.473587 20V1.47422H7.9889C9.24968 1.47422 10.363 1.69802 11.329 2.14563C12.3114 2.59323 13.081 3.25634 13.6376 4.13497C14.1944 5.0136 14.4727 6.0994 14.4727 7.3925C14.4727 8.6524 14.1862 9.7217 13.6131 10.6003C13.0564 11.479 12.2868 12.1504 11.3045 12.6146C10.3385 13.0622 9.23328 13.286 7.9889 13.286H4.28036V20H0.473587ZM4.28036 9.9289H8.01345C8.81574 9.9289 9.45432 9.6968 9.92908 9.2327C10.4203 8.7685 10.6659 8.1551 10.6659 7.3925C10.6659 6.6134 10.4203 5.99169 9.92908 5.52751C9.45432 5.06333 8.81574 4.83124 8.01345 4.83124H4.28036V9.9289ZM22.0308 20.2984C20.7046 20.2984 19.4929 19.9917 18.3959 19.3783C17.3153 18.7649 16.4557 17.9278 15.8172 16.8668C15.1786 15.7892 14.8594 14.5707 14.8594 13.2114C14.8594 11.8354 15.1786 10.6169 15.8172 9.5559C16.4557 8.495 17.3153 7.6578 18.3959 7.0444C19.4929 6.431 20.7046 6.1243 22.0308 6.1243C23.357 6.1243 24.5604 6.431 25.6411 7.0444C26.7381 7.6578 27.6058 8.495 28.2444 9.5559C28.883 10.6169 29.2023 11.8354 29.2023 13.2114C29.2023 14.5707 28.883 15.7892 28.2444 16.8668C27.6058 17.9278 26.7381 18.7649 25.6411 19.3783C24.5604 19.9917 23.357 20.2984 22.0308 20.2984ZM22.0308 16.9414C23.0459 16.9414 23.8564 16.5932 24.4622 15.897C25.0843 15.2007 25.3955 14.3055 25.3955 13.2114C25.3955 12.1338 25.0843 11.2469 24.4622 10.5506C23.8564 9.8378 23.0459 9.4813 22.0308 9.4813C21.032 9.4813 20.2215 9.8378 19.5993 10.5506C18.9772 11.2469 18.6661 12.1338 18.6661 13.2114C18.6661 14.3055 18.9772 15.2007 19.5993 15.897C20.2215 16.5932 21.032 16.9414 22.0308 16.9414ZM30.6764 20V6.4227H34.1148V8.4618C34.4587 7.6163 34.9416 7.0444 35.5639 6.746C36.2024 6.431 36.931 6.2735 37.7496 6.2735H39.1495V9.5062H37.3812C36.4807 9.5062 35.7521 9.788 35.1955 10.3517C34.6387 10.8987 34.3604 11.6779 34.3604 12.6892V20H30.6764ZM47.2986 20.1492C45.6776 20.1492 44.4169 19.7099 43.5164 18.8313C42.6322 17.9361 42.1901 16.6927 42.1901 15.1012V9.6554H39.8816V6.4227H40.0534C41.4779 6.4227 42.1901 5.72645 42.1901 4.3339V2.34456H45.8742V6.4227H49.0178V9.6554H45.8742V15.1012C45.8742 16.4772 46.6355 17.1652 48.1582 17.1652C48.3875 17.1652 48.674 17.1403 49.0178 17.0906V20.0249C48.4774 20.1078 47.9044 20.1492 47.2986 20.1492ZM51.5559 20V9.6554H49.2718V6.4227H51.5559V6.0248C51.5559 4.41679 52.0225 3.17345 52.9558 2.29483C53.8891 1.4162 55.1907 0.976879 56.8608 0.976879C57.352 0.976879 57.7859 1.01833 58.1625 1.10122V4.28417C57.8514 4.23444 57.5812 4.20957 57.352 4.20957C55.9439 4.20957 55.2399 4.81466 55.2399 6.0248V6.4227H58.138V9.6554H55.2399V20H51.5559ZM65.5871 20.2984C64.2608 20.2984 63.0492 19.9917 61.9522 19.3783C60.8715 18.7649 60.012 17.9278 59.3734 16.8668C58.7348 15.7892 58.4156 14.5707 58.4156 13.2114C58.4156 11.8354 58.7348 10.6169 59.3734 9.5559C60.012 8.495 60.8715 7.6578 61.9522 7.0444C63.0492 6.431 64.2608 6.1243 65.5871 6.1243C66.9133 6.1243 68.1167 6.431 69.1973 7.0444C70.2943 7.6578 71.1621 8.495 71.8007 9.5559C72.4392 10.6169 72.7585 11.8354 72.7585 13.2114C72.7585 14.5707 72.4392 15.7892 71.8007 16.8668C71.1621 17.9278 70.2943 18.7649 69.1973 19.3783C68.1167 19.9917 66.9133 20.2984 65.5871 20.2984ZM65.5871 16.9414C66.6022 16.9414 67.4126 16.5932 68.0185 15.897C68.6407 15.2007 68.9517 14.3055 68.9517 13.2114C68.9517 12.1338 68.6407 11.2469 68.0185 10.5506C67.4126 9.8378 66.6022 9.4813 65.5871 9.4813C64.5882 9.4813 63.7778 9.8378 63.1557 10.5506C62.5334 11.2469 62.2223 12.1338 62.2223 13.2114C62.2223 14.3055 62.5334 15.2007 63.1557 15.897C63.7778 16.5932 64.5882 16.9414 65.5871 16.9414ZM74.2327 20V1.47422H77.9166V20H74.2327ZM80.127 5.20424V1.47422H83.811V5.20424H80.127ZM80.127 20V6.4227H83.811V20H80.127ZM92.4561 20.2984C91.1298 20.2984 89.9182 19.9917 88.8212 19.3783C87.7405 18.7649 86.881 17.9278 86.2424 16.8668C85.6039 15.7892 85.2845 14.5707 85.2845 13.2114C85.2845 11.8354 85.6039 10.6169 86.2424 9.5559C86.881 8.495 87.7405 7.6578 88.8212 7.0444C89.9182 6.431 91.1298 6.1243 92.4561 6.1243C93.7823 6.1243 94.9857 6.431 96.0664 7.0444C97.1634 7.6578 98.0311 8.495 98.6701 9.5559C99.3081 10.6169 99.6272 11.8354 99.6272 13.2114C99.6272 14.5707 99.3081 15.7892 98.6701 16.8668C98.0311 17.9278 97.1634 18.7649 96.0664 19.3783C94.9857 19.9917 93.7823 20.2984 92.4561 20.2984ZM92.4561 16.9414C93.4712 16.9414 94.2817 16.5932 94.8875 15.897C95.5096 15.2007 95.8207 14.3055 95.8207 13.2114C95.8207 12.1338 95.5096 11.2469 94.8875 10.5506C94.2817 9.8378 93.4712 9.4813 92.4561 9.4813C91.4573 9.4813 90.6468 9.8378 90.0246 10.5506C89.4025 11.2469 89.0914 12.1338 89.0914 13.2114C89.0914 14.3055 89.4025 15.2007 90.0246 15.897C90.6468 16.5932 91.4573 16.9414 92.4561 16.9414ZM114.135 20.2984C112.825 20.2984 111.605 20.058 110.476 19.5773C109.362 19.0965 108.389 18.4251 107.553 17.5631C106.719 16.701 106.064 15.6898 105.589 14.5293C105.13 13.3688 104.901 12.1006 104.901 10.7247C104.901 9.3487 105.13 8.0805 105.589 6.9201C106.047 5.74303 106.694 4.73178 107.528 3.8863C108.364 3.02425 109.338 2.36114 110.451 1.89696C111.581 1.4162 112.809 1.17582 114.135 1.17582C115.461 1.17582 116.648 1.39962 117.696 1.84722C118.761 2.29483 119.661 2.89163 120.399 3.63763C121.135 4.38364 121.659 5.21253 121.97 6.1243L118.605 7.7655C118.294 6.8703 117.746 6.1326 116.96 5.55238C116.19 4.95558 115.249 4.65717 114.135 4.65717C113.054 4.65717 112.105 4.91413 111.286 5.42805C110.468 5.94196 109.829 6.6548 109.37 7.5666C108.929 8.4618 108.708 9.5145 108.708 10.7247C108.708 11.9349 108.929 12.9958 109.37 13.9076C109.829 14.8194 110.468 15.5323 111.286 16.0462C112.105 16.5601 113.054 16.817 114.135 16.817C115.249 16.817 116.19 16.5269 116.96 15.9467C117.746 15.3499 118.294 14.6039 118.605 13.7087L121.97 15.3499C121.659 16.2617 121.135 17.0906 120.399 17.8366C119.661 18.5826 118.761 19.1794 117.696 19.627C116.648 20.0746 115.461 20.2984 114.135 20.2984ZM123.683 20V6.4227H127.121V8.4618C127.465 7.6163 127.948 7.0444 128.57 6.746C129.209 6.431 129.938 6.2735 130.756 6.2735H132.157V9.5062H130.388C129.488 9.5062 128.759 9.788 128.202 10.3517C127.646 10.8987 127.367 11.6779 127.367 12.6892V20H123.683ZM139.679 20.2984C138.27 20.2984 137.035 19.9834 135.97 19.3535C134.922 18.7069 134.103 17.8449 133.514 16.7673C132.941 15.6898 132.654 14.4961 132.654 13.1865C132.654 11.8271 132.949 10.6169 133.538 9.5559C134.145 8.495 134.955 7.6578 135.97 7.0444C137.001 6.431 138.156 6.1243 139.433 6.1243C140.694 6.1243 141.824 6.4227 142.822 7.0195C143.821 7.6163 144.615 8.4204 145.204 9.4316C145.794 10.4263 146.088 11.5536 146.088 12.8135C146.088 13.0787 146.073 13.344 146.039 13.6092C146.023 13.8579 145.982 14.0734 145.917 14.2558H136.485C136.6 15.1012 136.944 15.7809 137.518 16.2948C138.09 16.8088 138.827 17.0657 139.728 17.0657C140.383 17.0657 140.939 16.9331 141.398 16.6678C141.872 16.4026 142.24 16.0379 142.503 15.5737L145.45 16.9911C145.04 17.9858 144.32 18.7898 143.288 19.4032C142.257 20 141.053 20.2984 139.679 20.2984ZM139.433 9.1083C138.713 9.1083 138.098 9.3156 137.591 9.73C137.083 10.1445 136.739 10.7413 136.56 11.5204H142.183C142.118 10.791 141.832 10.2108 141.324 9.7797C140.833 9.3321 140.202 9.1083 139.433 9.1083ZM151.544 20.2984C150.529 20.2984 149.645 20.1243 148.892 19.7762C148.156 19.4115 147.582 18.9307 147.173 18.3339C146.78 17.7205 146.583 17.0408 146.583 16.2948C146.583 15.2836 146.96 14.4547 147.713 13.8082C148.467 13.145 149.522 12.6726 150.881 12.3908L155.081 11.4955V11.0479C155.081 10.534 154.892 10.1279 154.516 9.8295C154.14 9.5145 153.64 9.357 153.018 9.357C152.363 9.357 151.782 9.5394 151.275 9.9041C150.783 10.2522 150.439 10.733 150.242 11.3463L147.075 9.8046C147.467 8.6773 148.196 7.7821 149.261 7.119C150.341 6.4559 151.594 6.1243 153.018 6.1243C154.164 6.1243 155.163 6.3315 156.014 6.746C156.882 7.1604 157.553 7.7407 158.028 8.4867C158.519 9.2161 158.765 10.0699 158.765 11.0479V20H155.327V18.7567C154.819 19.3037 154.254 19.7016 153.632 19.9503C153.027 20.1824 152.33 20.2984 151.544 20.2984ZM150.391 16.2451C150.391 16.6596 150.546 16.9828 150.857 17.2149C151.168 17.447 151.586 17.5631 152.109 17.5631C152.945 17.5631 153.649 17.2978 154.222 16.7673C154.795 16.2368 155.081 15.5903 155.081 14.8277V14.1812L151.544 14.9769C150.775 15.1593 150.391 15.582 150.391 16.2451ZM166.916 20.1492C165.295 20.1492 164.035 19.7099 163.134 18.8313C162.25 17.9361 161.808 16.6927 161.808 15.1012V9.6554H159.5V6.4227H159.672C161.096 6.4227 161.808 5.72645 161.808 4.3339V2.34456H165.492V6.4227H168.636V9.6554H165.492V15.1012C165.492 16.4772 166.253 17.1652 167.776 17.1652C168.005 17.1652 168.292 17.1403 168.636 17.0906V20.0249C168.095 20.1078 167.522 20.1492 166.916 20.1492ZM176.553 20.2984C175.226 20.2984 174.014 19.9917 172.917 19.3783C171.837 18.7649 170.977 17.9278 170.338 16.8668C169.7 15.7892 169.381 14.5707 169.381 13.2114C169.381 11.8354 169.7 10.6169 170.338 9.5559C170.977 8.495 171.837 7.6578 172.917 7.0444C174.014 6.431 175.226 6.1243 176.553 6.1243C177.879 6.1243 179.082 6.431 180.162 7.0444C181.26 7.6578 182.128 8.495 182.766 9.5559C183.405 10.6169 183.724 11.8354 183.724 13.2114C183.724 14.5707 183.405 15.7892 182.766 16.8668C182.128 17.9278 181.26 18.7649 180.162 19.3783C179.082 19.9917 177.879 20.2984 176.553 20.2984ZM176.553 16.9414C177.568 16.9414 178.378 16.5932 178.984 15.897C179.606 15.2007 179.917 14.3055 179.917 13.2114C179.917 12.1338 179.606 11.2469 178.984 10.5506C178.378 9.8378 177.568 9.4813 176.553 9.4813C175.553 9.4813 174.743 9.8378 174.121 10.5506C173.499 11.2469 173.188 12.1338 173.188 13.2114C173.188 14.3055 173.499 15.2007 174.121 15.897C174.743 16.5932 175.553 16.9414 176.553 16.9414ZM185.198 20V6.4227H188.637V8.4618C188.98 7.6163 189.463 7.0444 190.085 6.746C190.723 6.431 191.452 6.2735 192.271 6.2735H193.671V9.5062H191.903C191.002 9.5062 190.274 9.788 189.717 10.3517C189.16 10.8987 188.881 11.6779 188.881 12.6892V20H185.198Z" fill="black"/>
</svg>
